<svg xmlns="http://www.w3.org/2000/svg" style="fill:#cefd51" viewBox="0 0 80 80"><path d="M59.675 38.455a23 23 0 0 1-5.807-3.476c-5.757-4.51-9.986-11.79-10.163-12.097l-.772-1.34 2.681-1.548.773 1.341c.04.07 4.113 7.074 9.385 11.204a20 20 0 0 0 10.678 4.467l.166.025c.802.086 1.57.372 2.234.83a2.56 2.56 0 0 1 1.149 2.13c0 .834-.41 1.615-1.093 2.092a4.95 4.95 0 0 1-2.23.907c-.39.067-.804.123-1.237.182a16.86 16.86 0 0 0-9.808 4.143 47.4 47.4 0 0 0-9.23 11.328l-.749 1.353-2.708-1.49.746-1.355a49.5 49.5 0 0 1 9.918-12.177 19.8 19.8 0 0 1 5.498-3.425H9.999v-3.094z"/></svg>