<svg xmlns="http://www.w3.org/2000/svg" id="Ebene_1" data-name="Ebene 1" viewBox="0 0 80 40"><defs><style>.cls-1,.cls-2{fill:none;stroke-width:0}.cls-2{fill:#818080}</style></defs><path d="M7.87 21.21h8.97v-4.39h1.73s.01.09.01.14v4.79c0 .54-.48 1.09-1.01 1.16-.17.02-.35.04-.52.04H7.47c-.75 0-1.35-.59-1.35-1.35.01-3.27 0-6.53 0-9.8 0-.74.55-1.33 1.31-1.32 1.54.01 3.09 0 4.63 0h.2v1.69H7.87v9.03Zm44.51 1.85h-1.93c-.54-.8-1.08-1.62-1.63-2.44H47.5v2.43h-1.65v-7.6h.19c1.12 0 2.25-.02 3.37 0 .63.01 1.24.13 1.77.51.51.36.82.84.92 1.46.09.54.07 1.07-.14 1.58-.18.46-.49.81-.91 1.07-.16.1-.34.18-.52.28.61.9 1.22 1.79 1.85 2.71m-4.88-6.1v2.17c.7 0 1.39.07 2.07-.02.82-.1 1.07-.84.83-1.49-.17-.46-.59-.63-1.03-.65-.61-.03-1.23 0-1.86 0Zm-8.86 6.11h-1.67c.09-.22.17-.43.25-.63.52-1.23 1.05-2.47 1.57-3.7.42-.98.83-1.97 1.26-2.95.1-.23.29-.36.55-.36h.79c.23 0 .4.13.5.35.41.95.82 1.91 1.22 2.86.39.91.76 1.82 1.15 2.73.22.51.44 1.01.66 1.52.03.06.04.12.06.19h-1.72c-.22-.54-.44-1.08-.67-1.64H39.3c-.22.54-.45 1.09-.67 1.64Zm2.31-5.67c-.36.88-.7 1.73-1.06 2.59H42c-.35-.86-.7-1.7-1.06-2.59Zm14.45 4.02c-.23.56-.45 1.1-.67 1.64h-1.69q.45-1.08.9-2.13c.31-.74.63-1.47.94-2.21.28-.67.56-1.33.85-2 .13-.31.28-.62.41-.93.1-.24.28-.35.52-.37.28-.01.55 0 .83 0 .19 0 .43.2.52.39.32.77.65 1.53.97 2.3l.96 2.25c.28.67.56 1.33.85 2 .1.23.2.47.3.71h-1.72c-.22-.54-.45-1.09-.67-1.64h-3.29Zm2.71-1.43c-.35-.87-.7-1.71-1.06-2.6-.36.89-.71 1.74-1.06 2.6zm-24.91.79v2.28h-1.64v-7.59h.16c1.03 0 2.05-.02 3.07 0 .79.02 1.52.24 2.08.82.42.44.65.98.66 1.6.01.5-.02.99-.27 1.45-.29.56-.75.92-1.32 1.16-.52.22-1.07.28-1.63.28h-1.13Zm.02-1.5c.49 0 .97-.02 1.44 0 .5.03 1.14-.35 1.22-.96.07-.52-.09-1.06-.69-1.25a2.7 2.7 0 0 0-.7-.12c-.42-.02-.85 0-1.27 0zm-9.01 3.78h-1.68c.14-.35 2.82-6.61 3.1-7.28.08-.2.23-.33.4-.35.33-.04.67-.04 1 0 .34.04.44.35.56.63.34.79 2.93 6.92 2.96 7h-1.66c-.07-.07-2.36-5.64-2.36-5.64l-2.33 5.64Zm35.51-7.64h1.71c.76 1.87 1.52 3.73 2.3 5.65.78-1.91 1.54-3.78 2.3-5.65h1.68c-.15.35-.29.68-.43 1.02-.36.86-.72 1.71-1.09 2.57-.28.65-.55 1.3-.83 1.95-.24.56-.49 1.12-.72 1.68-.12.28-.34.41-.61.43-.28.02-.56 0-.84-.04-.21-.02-.35-.17-.43-.36-.48-1.13-.96-2.25-1.44-3.38-.54-1.27-1.09-2.54-1.63-3.82v-.05Zm-45.67-4.85V9.02c.06 0 .11-.02.15-.03h5.05c.39.15.68.4.79.81.02.07.02.14.03.21.01.09.03.18.04.27v4.7h-1.65v-4.11c0-.07-.03-.15-.04-.22-.07-.03-.14-.08-.21-.08h-4.17Zm54.66 12.49v-7.59h1.63v7.59z" class="cls-2"/><path d="m27.82 20.52.93 2.22-3.45-2.31.5-1.23zm44.86-5.06c.2 0 .4.05.59.16q.285.15.45.45a1.2 1.2 0 0 1 0 1.2c-.11.19-.25.34-.45.45a1.2 1.2 0 0 1-1.2 0c-.19-.11-.34-.25-.45-.45-.11-.19-.16-.39-.16-.6s.05-.41.16-.6q.165-.285.45-.45c.19-.1.39-.16.59-.16Zm0 .2c-.17 0-.33.04-.49.13s-.29.21-.38.37-.14.33-.14.5.04.34.13.5.21.28.37.37.33.13.5.13.34-.04.5-.13a.94.94 0 0 0 .37-.37c.09-.16.13-.33.13-.5s-.05-.34-.14-.5a.9.9 0 0 0-.38-.37 1 1 0 0 0-.49-.13Zm-.53 1.68v-1.3h.45c.15 0 .26.01.33.04.07.02.12.07.16.13s.06.12.06.19c0 .09-.03.18-.1.25s-.16.11-.27.12c.05.02.08.04.11.07.05.05.12.14.19.26l.16.25h-.26l-.12-.2c-.09-.16-.16-.26-.22-.3-.04-.03-.09-.04-.17-.04h-.12v.55h-.21Zm.21-.74h.25c.12 0 .2-.02.25-.05.04-.04.07-.08.07-.14 0-.04-.01-.07-.03-.1a.2.2 0 0 0-.09-.07 1 1 0 0 0-.21-.02h-.24v.39ZM6.87 26.43h1.42c.48 0 .82.17 1.01.51.17.31.21.7.1 1.19-.08.37-.22.71-.42 1.01-.36.53-.84.8-1.44.8H6.13zm.66 3.09c.16 0 .3-.02.41-.05.2-.06.37-.18.53-.36.12-.14.23-.32.32-.54.05-.13.09-.25.11-.37.09-.43.08-.77-.04-1.01s-.37-.36-.76-.36h-.84l-.57 2.69h.85Zm3.74-1.14c.1-.01.18-.05.23-.12.03-.04.05-.09.06-.16.03-.15 0-.25-.09-.32s-.23-.1-.43-.1c-.22 0-.4.06-.52.18a.7.7 0 0 0-.16.3h-.4q.105-.465.45-.66c.22-.12.46-.19.72-.19.3 0 .53.06.69.17s.22.29.17.53l-.31 1.47v.11c.01.03.05.04.11.04h.07c.02 0 .05 0 .08-.01l-.07.32c-.07.02-.12.03-.16.04h-.14c-.15 0-.24-.05-.29-.16a.6.6 0 0 1-.02-.24c-.11.11-.26.21-.44.3-.18.08-.37.13-.57.13-.24 0-.42-.07-.54-.22-.12-.14-.16-.32-.11-.54.05-.24.16-.42.34-.55q.27-.195.63-.24l.7-.09Zm-.85 1.27c.15 0 .31-.03.46-.1q.39-.18.48-.57l.07-.35c-.06.03-.13.06-.22.08s-.17.04-.25.05l-.27.03c-.16.02-.28.05-.37.1q-.225.105-.27.36c-.03.12 0 .22.07.29.08.07.18.11.3.11m2.65-2.99h.43l-.15.71h.41l-.07.35h-.41l-.36 1.67c-.02.09 0 .15.05.18.03.02.08.03.16.03h.16l-.07.34-.16.03c-.05.01-.11 0-.18 0-.2 0-.33-.05-.38-.15a.6.6 0 0 1-.02-.4l.36-1.69h-.35l.07-.35h.35l.15-.71Zm2.27 1.72c.1-.01.18-.05.23-.12.03-.04.05-.09.06-.16.03-.15 0-.25-.09-.32s-.23-.1-.43-.1c-.22 0-.4.06-.52.18a.7.7 0 0 0-.16.3h-.4q.105-.465.45-.66c.22-.12.46-.19.72-.19.3 0 .53.06.69.17s.22.29.17.53l-.31 1.47v.11c.01.03.05.04.11.04h.07c.02 0 .05 0 .08-.01l-.07.32c-.07.02-.12.03-.16.04h-.14c-.15 0-.24-.05-.29-.16a.6.6 0 0 1-.02-.24c-.11.11-.26.21-.44.3-.18.08-.37.13-.57.13-.24 0-.42-.07-.54-.22-.12-.14-.16-.32-.11-.54.05-.24.16-.42.34-.55q.27-.195.63-.24l.7-.09Zm-.85 1.27c.15 0 .31-.03.46-.1q.39-.18.48-.57l.07-.35c-.06.03-.13.06-.22.08s-.17.04-.25.05l-.27.03c-.16.02-.28.05-.37.1q-.225.105-.27.36c-.03.12 0 .22.07.29.08.07.18.11.3.11m4.14-3.22h.48l-.74 3.51h-.48zm.99.94h.41l-.08.36c.15-.15.3-.26.45-.32s.31-.1.47-.1c.36 0 .58.13.65.38.04.14.03.34-.02.59l-.35 1.64h-.44l.34-1.61c.03-.16.04-.28.01-.38-.04-.16-.16-.24-.37-.24-.1 0-.19.01-.26.03-.13.04-.24.11-.36.21-.09.08-.15.17-.19.26s-.08.22-.11.39l-.28 1.34h-.43l.54-2.56Zm2.96-.71h.43l-.15.71h.41l-.07.35h-.41l-.36 1.67c-.02.09 0 .15.05.18.03.02.08.03.16.03h.16l-.07.34-.16.03c-.05.01-.11 0-.18 0-.2 0-.33-.05-.38-.15a.6.6 0 0 1-.02-.4l.36-1.69H22l.07-.35h.35l.15-.71Zm3.01 1.12c.06.13.08.28.08.45 0 .12-.03.31-.08.56h-1.87c-.05.26-.03.47.05.62.08.16.24.23.48.23.22 0 .42-.07.58-.22.1-.09.17-.19.23-.3h.42c-.03.09-.09.2-.18.31-.09.12-.18.21-.27.28-.16.13-.34.21-.54.26-.11.03-.23.04-.36.04-.32 0-.56-.12-.73-.35s-.21-.56-.12-.97.27-.74.55-1 .59-.38.95-.38c.18 0 .35.04.5.13s.26.2.32.33Zm-.37.67c.02-.19.01-.33-.03-.45-.07-.21-.25-.31-.52-.31q-.3 0-.54.21t-.33.54h1.42Zm1.41-2.02h.43l-.74 3.51h-.43zm1.08 0h.43l-.74 3.51h-.43zm.87.96h.44l-.54 2.54h-.44zm.21-.96h.44l-.1.49h-.44zm2.29 1.05c.07.06.14.14.2.24l.07-.32h.4l-.49 2.32c-.07.32-.17.58-.31.77-.25.35-.63.52-1.12.52-.28 0-.49-.06-.65-.18s-.23-.32-.19-.58h.44c0 .11.02.2.07.26.08.1.22.14.43.14.33 0 .57-.12.72-.35.09-.14.17-.38.24-.73-.11.13-.24.23-.37.29s-.3.1-.5.1c-.28 0-.5-.1-.66-.29s-.2-.52-.1-.97c.09-.43.27-.76.53-1s.54-.36.83-.36c.2 0 .37.05.49.15Zm-.5.23c-.3 0-.54.14-.71.42-.09.15-.16.35-.21.59q-.09.435.03.66c.09.15.23.23.42.23.31 0 .56-.14.74-.42.1-.16.18-.34.22-.55.07-.32.05-.55-.05-.7a.51.51 0 0 0-.45-.23Zm3.7.07c.06.13.08.28.08.45 0 .12-.03.31-.08.56h-1.87c-.05.26-.03.47.05.62.08.16.24.23.48.23.22 0 .42-.07.58-.22.1-.09.17-.19.23-.3h.42c-.03.09-.09.2-.18.31-.09.12-.18.21-.27.28-.16.13-.34.21-.54.26-.11.03-.23.04-.36.04-.32 0-.56-.12-.73-.35s-.21-.56-.12-.97.27-.74.55-1 .59-.38.95-.38c.18 0 .35.04.5.13s.26.2.32.33Zm-.37.67c.02-.19.01-.33-.03-.45-.07-.21-.25-.31-.52-.31q-.3 0-.54.21t-.33.54h1.42Zm1.2-1.08h.41l-.08.36c.15-.15.3-.26.45-.32s.31-.1.47-.1c.36 0 .58.13.65.38.04.14.03.34-.02.59l-.35 1.64h-.44l.34-1.61c.03-.16.04-.28.01-.38-.04-.16-.16-.24-.37-.24-.1 0-.19.01-.26.03-.13.04-.24.11-.36.21-.09.08-.15.17-.19.26s-.08.22-.11.39l-.28 1.34h-.43l.54-2.56Zm4.55.86h-.42c0-.16-.02-.29-.09-.39s-.2-.16-.4-.16c-.27 0-.5.13-.67.4-.11.17-.2.39-.25.64-.06.26-.05.47.02.65s.22.26.46.26c.18 0 .33-.05.46-.16s.23-.26.31-.45h.42c-.12.34-.29.59-.52.74-.22.16-.49.24-.78.24-.33 0-.57-.12-.72-.37-.15-.24-.18-.55-.1-.92.1-.45.28-.8.55-1.05s.58-.37.91-.37q.435 0 .66.21c.225.21.21.38.17.72Zm2.5-.45c.06.13.08.28.08.45 0 .12-.03.31-.08.56h-1.87c-.05.26-.03.47.05.62.08.16.24.23.48.23.22 0 .42-.07.58-.22.1-.09.17-.19.23-.3h.42c-.03.09-.09.2-.18.31-.09.12-.18.21-.27.28-.16.13-.34.21-.54.26-.11.03-.23.04-.36.04-.32 0-.56-.12-.73-.35s-.21-.56-.12-.97.27-.74.55-1 .59-.38.95-.38c.18 0 .35.04.5.13s.26.2.32.33Zm-.37.67c.02-.19.01-.33-.03-.45-.07-.21-.25-.31-.52-.31q-.3 0-.54.21t-.33.54h1.42Zm2.9-1.24c.05-.23.17-.41.35-.56s.4-.22.66-.22.42.07.53.21.14.3.1.5c-.05.22-.16.42-.34.59-.1.1-.27.21-.49.34l.48.76c.07-.13.12-.22.15-.29.03-.06.07-.15.11-.26h.41c-.07.22-.17.44-.3.65-.12.21-.18.29-.18.25l.46.76h-.55l-.25-.4c-.16.14-.3.24-.42.31-.21.11-.45.17-.69.17-.36 0-.61-.1-.73-.29s-.16-.42-.11-.66c.06-.27.18-.49.38-.67.12-.11.33-.24.64-.41-.11-.17-.18-.31-.21-.43a.65.65 0 0 1 0-.34Zm.98 2.03-.59-.97c-.26.15-.43.26-.51.34-.13.12-.21.26-.25.44-.04.19 0 .33.11.43s.25.15.4.15q.27 0 .48-.12c.14-.08.26-.17.35-.27Zm.04-1.71c.12-.11.19-.23.22-.36.02-.1 0-.19-.05-.27-.05-.07-.14-.11-.25-.11-.18 0-.31.06-.4.18-.05.06-.08.13-.1.2-.02.1-.01.19.02.28s.1.2.19.35c.18-.11.3-.19.37-.26Zm4.26-1.1h.54l.53 3.51h-.52l-.13-1.05H49l-.6 1.05h-.49zm.34 2.06-.2-1.55-.89 1.55h1.1Zm2.07-1.12-.36 1.7c-.03.13-.03.24 0 .32.04.15.17.23.38.23.3 0 .53-.13.7-.4.09-.14.16-.34.21-.59l.27-1.26h.43l-.54 2.56h-.41l.08-.38a1.13 1.13 0 0 1-.9.45c-.36 0-.59-.12-.67-.37-.04-.13-.04-.3 0-.52l.37-1.74zm2.53-.71h.43l-.15.71h.41l-.07.35h-.41l-.36 1.67c-.02.09 0 .15.05.18.03.02.08.03.16.03h.16l-.07.34-.16.03c-.05.01-.11 0-.18 0-.2 0-.33-.05-.38-.15a.6.6 0 0 1-.02-.4l.36-1.69h-.35l.07-.35h.35l.15-.71Zm3.06 1.94c-.09.41-.26.75-.52 1.02s-.6.4-1.02.4c-.35 0-.61-.12-.76-.36-.16-.24-.19-.56-.11-.96.09-.43.27-.77.55-1.03.27-.25.59-.38.96-.38.33 0 .58.11.76.33s.23.54.13.97Zm-.45.01c.05-.24.05-.43 0-.58-.07-.24-.26-.35-.55-.35a.8.8 0 0 0-.64.3c-.16.2-.27.44-.33.73-.06.27-.05.5.03.68q.12.27.51.27c.28 0 .5-.11.66-.32.15-.22.26-.46.31-.72Zm1.23-1.24h.42l-.08.36q.195-.195.33-.27.24-.15.51-.15c.2 0 .36.05.46.15.06.06.1.14.14.25.13-.14.26-.24.4-.3.14-.07.29-.1.45-.1.34 0 .55.12.62.37.04.13.03.31-.01.54l-.36 1.7h-.45l.38-1.78c.04-.17.02-.29-.05-.35a.44.44 0 0 0-.29-.1c-.17 0-.33.06-.47.17q-.225.165-.3.57l-.31 1.49h-.44l.35-1.67c.04-.17.04-.3.02-.38q-.06-.18-.33-.18c-.16 0-.32.06-.48.19s-.27.35-.34.68l-.29 1.36h-.43l.54-2.56Zm5.22 1.01c.1-.01.18-.05.23-.12.03-.04.05-.09.06-.16.03-.15 0-.25-.09-.32s-.23-.1-.43-.1c-.22 0-.4.06-.52.18a.7.7 0 0 0-.16.3h-.4q.105-.465.45-.66c.22-.12.46-.19.72-.19.3 0 .53.06.69.17s.22.29.17.53l-.31 1.47v.11c.01.03.05.04.11.04h.07c.02 0 .05 0 .08-.01l-.07.32c-.07.02-.12.03-.16.04h-.14c-.15 0-.24-.05-.29-.16a.6.6 0 0 1-.02-.24c-.11.11-.26.21-.44.3-.18.08-.37.13-.57.13-.24 0-.42-.07-.54-.22-.12-.14-.16-.32-.11-.54.05-.24.16-.42.34-.55q.27-.195.63-.24l.7-.09Zm-.85 1.27c.15 0 .31-.03.46-.1q.39-.18.48-.57l.07-.35c-.06.03-.13.06-.22.08s-.17.04-.25.05l-.27.03c-.16.02-.28.05-.37.1q-.225.105-.27.36c-.03.12 0 .22.07.29.08.07.18.11.3.11m2.65-2.99h.43l-.15.71h.41l-.07.35h-.41l-.36 1.67c-.02.09 0 .15.05.18.03.02.08.03.16.03h.16l-.07.34-.16.03c-.05.01-.11 0-.18 0-.2 0-.33-.05-.38-.15a.6.6 0 0 1-.02-.4l.36-1.69h-.35l.07-.35h.35l.15-.71Zm1.12.73h.44l-.54 2.54h-.44zm.2-.96h.44l-.1.49h-.44zm2.83 2.17c-.09.41-.26.75-.52 1.02s-.6.4-1.02.4c-.35 0-.61-.12-.76-.36-.16-.24-.19-.56-.11-.96.09-.43.27-.77.55-1.03.27-.25.59-.38.96-.38.33 0 .58.11.76.33s.23.54.13.97Zm-.45.01c.05-.24.05-.43 0-.58-.07-.24-.26-.35-.55-.35a.8.8 0 0 0-.64.3c-.16.2-.27.44-.33.73-.06.27-.05.5.03.68q.12.27.51.27c.28 0 .5-.11.66-.32.15-.22.26-.46.31-.72Zm1.22-1.24h.41l-.08.36c.15-.15.3-.26.45-.32s.31-.1.47-.1c.36 0 .58.13.65.38.04.14.03.34-.02.59l-.35 1.64h-.44l.34-1.61c.03-.16.04-.28.01-.38-.04-.16-.16-.24-.37-.24-.1 0-.19.01-.26.03-.13.04-.24.11-.36.21-.09.08-.15.17-.19.26s-.08.22-.11.39l-.28 1.34h-.43l.54-2.56Z" class="cls-2"/><path d="M0 0h80v40H0z" class="cls-1"/><path d="M0 0h80v40H0z" class="cls-1"/></svg>